<?xml version="1.0" encoding="UTF-8" standalone="no"?>
<svg
   width="18"
   height="22"
   viewBox="0 0 18 22"
   fill="none"
   stroke="currentColor"
   stroke-width="2"
   stroke-linecap="round"
   stroke-linejoin="round"
   class="lucide lucide-smile"
   version="1.1"
   id="svg2"
   xml:space="preserve"
   xmlns="http://www.w3.org/2000/svg"
   xmlns:svg="http://www.w3.org/2000/svg"><defs
     id="defs2" /><path
     d="M 1,18.5 V 3.5 A 2.5,2.5 0 0 1 3.5,0.99999998 H 16 A 1,1 0 0 1 17,2 v 18 a 1,1 0 0 1 -1,1 H 3.5 a 2.5,2.5 0 0 1 0,-5 H 17"
     id="path2-6" /><g
     id="g9"
     transform="matrix(0.88088086,0,0,0.88088086,-1.5209844,0.13737138)"><path
       d="M 11.943709,4.8214598 V 6.7121499"
       id="path1-0"
       style="stroke-width:0.945343" /><path
       d="M 13.928934,7.5629598 15.299683,6.1922099"
       id="path2-2"
       style="stroke-width:0.945343" /><path
       d="m 14.779743,9.5481837 h 1.89069"
       id="path3-3"
       style="stroke-width:0.945343" /><path
       d="m 13.928934,11.533408 1.370749,1.37075"
       id="path4-7"
       style="stroke-width:0.945343" /><path
       d="m 11.943709,12.384218 v 1.89069"
       id="path5"
       style="stroke-width:0.945343" /><path
       d="m 8.5877347,12.904158 1.3707508,-1.37075"
       id="path6"
       style="stroke-width:0.945343" /><path
       d="M 7.2169848,9.5481837 H 9.1076747"
       id="path7"
       style="stroke-width:0.945343" /><path
       d="M 8.5877347,6.1922099 9.9584855,7.5629598"
       id="path8"
       style="stroke-width:0.945343" /></g></svg>
