<?xml version="1.0" encoding="UTF-8" standalone="no"?>
<svg
   width="24"
   height="24"
   viewBox="0 0 24 24"
   fill="none"
   stroke="currentColor"
   stroke-width="2"
   stroke-linecap="round"
   stroke-linejoin="round"
   class="lucide lucide-smile"
   version="1.1"
   id="svg2"
   xml:space="preserve"
   xmlns="http://www.w3.org/2000/svg"
   xmlns:svg="http://www.w3.org/2000/svg"><defs
     id="defs2" /><g
     style="fill:none;stroke:currentColor;stroke-width:2;stroke-linecap:round;stroke-linejoin:round"
     id="g3"
     transform="translate(-28.717527,-0.51156584)"><path
       d="M 10.3,21 H 5 A 2,2 0 0 1 3,19 V 5 A 2,2 0 0 1 5,3 h 14 a 2,2 0 0 1 2,2 v 10 l -3.1,-3.1 a 2,2 0 0 0 -2.814,0.014 L 6,21"
       id="path1-6" /><g
       id="g5"
       transform="translate(2.1941726,1.102758)"><path
         d="m 48.59653,18.559164 -3,3 -3,-3"
         id="path2-7" /><path
         d="m 45.59653,16.059164 v 5.5"
         id="path3-5" /></g><circle
       cx="9"
       cy="9"
       r="2"
       id="circle3" /></g><g
     id="g4"
     transform="matrix(0.44909454,0,0,0.44909454,1.0525355,1.1885714)"><g
       id="color"
       transform="translate(-11.8871,-12.056499)"><path
         fill="#3f3f3f"
         d="m 45.331,38.5639 c 3.9628,0 7.1782,-2.8618 7.1782,-6.3889 0,-1.7646 0.4473,-3.5291 -0.8519,-4.6852 -1.2992,-1.1561 -4.3449,-1.7037 -6.3264,-1.7037 -2.3567,0 -5.1428,0.1434 -6.4514,1.7037 -0.8933,1.0652 -0.7268,3.2534 -0.7268,4.6852 10e-5,3.5271 3.2128,6.3889 7.1783,6.3889 z"
         id="path1-62" /><path
         fill="#3f3f3f"
         d="m 25.7384,38.5639 c 3.9628,0 7.1782,-2.8618 7.1782,-6.3889 0,-1.7646 0.4473,-3.5291 -0.8519,-4.6852 -1.2992,-1.1561 -4.3449,-1.7037 -6.3264,-1.7037 -2.3567,0 -5.1428,0.1434 -6.4514,1.7037 -0.8933,1.0652 -0.7268,3.2534 -0.7268,4.6852 10e-5,3.5271 3.2128,6.3889 7.1783,6.3889 z"
         id="path2-9" /></g><g
       id="hair"
       transform="translate(-11.8871,-12.056499)" /><g
       id="skin"
       transform="translate(-11.8871,-12.056499)" /><g
       id="skin-shadow"
       transform="translate(-11.8871,-12.056499)" /><g
       id="line"
       transform="translate(-11.8871,-12.056499)"><path
         fill="none"
         stroke="#000000"
         stroke-linecap="round"
         stroke-linejoin="round"
         stroke-miterlimit="10"
         stroke-width="2"
         id="circle2-1"
         d="M 44.246818,57.483471 A 23,23 0 0 1 16.375471,48.234197 23,23 0 0 1 20.311438,19.13318 23,23 0 0 1 49.638416,17.620087 23,23 0 0 1 56.548382,46.16152" /><path
         fill="none"
         stroke="#000000"
         stroke-linecap="round"
         stroke-linejoin="round"
         stroke-miterlimit="10"
         stroke-width="2"
         d="m 45.7019,44.862 c -6.574,3.5248 -14.0454,3.6576 -19.6295,0"
         id="path3-2" /><path
         fill="none"
         stroke="#000000"
         stroke-linecap="round"
         stroke-linejoin="round"
         stroke-miterlimit="10"
         stroke-width="2"
         d="m 18.8826,30.4638 c 0,0 -0.953,8.5508 6.8608,7.9185 2.6197,-0.212 7.8164,-0.6507 7.867,-8.3427 0.0046,-0.6979 -0.0078,-1.5989 -0.8108,-2.6298 -1.0647,-1.3669 -3.5716,-1.9711 -9.9446,-1.422 10e-5,10e-5 -3.4462,-0.099 -3.9724,4.476 z"
         id="path4-7" /><polyline
         fill="none"
         stroke="#000000"
         stroke-linecap="round"
         stroke-linejoin="round"
         stroke-miterlimit="10"
         stroke-width="2"
         points="18.9534,29.9307 18.5203,26.5594 22.3532,26.0317"
         id="polyline4" /><path
         fill="none"
         stroke="#000000"
         stroke-linecap="round"
         stroke-linejoin="round"
         stroke-miterlimit="10"
         stroke-width="2"
         d="m 52.7412,30.4638 c 0,0 0.953,8.5508 -6.8608,7.9185 -2.6197,-0.212 -7.8164,-0.6507 -7.867,-8.3427 -0.0046,-0.6979 0.0078,-1.5989 0.8108,-2.6298 1.0647,-1.3669 3.5716,-1.9711 9.9446,-1.422 0,10e-5 3.4463,-0.099 3.9724,4.476 z"
         id="path5" /><path
         fill="none"
         stroke="#000000"
         stroke-linecap="round"
         stroke-linejoin="round"
         stroke-miterlimit="10"
         stroke-width="2"
         d="m 31.5048,26.4158 c 0,0 4.1241,2.5339 8.6569,0"
         id="path6" /><path
         fill="none"
         stroke="#000000"
         stroke-linecap="round"
         stroke-linejoin="round"
         stroke-miterlimit="10"
         stroke-width="2"
         d="m 33.5361,31.3179 c 0,0 2.2019,-3.7509 4.5362,0"
         id="path7" /><polyline
         fill="none"
         stroke="#000000"
         stroke-linecap="round"
         stroke-linejoin="round"
         stroke-miterlimit="10"
         stroke-width="2"
         points="52.6639,29.9332 53.097,26.5619 49.2641,26.0342"
         id="polyline7" /><path
         fill="none"
         stroke="#000000"
         stroke-linecap="round"
         stroke-linejoin="round"
         stroke-miterlimit="10"
         stroke-width="2"
         d="m 33.9549,30.0271 c 0,0 1.7954,-3.7509 3.6988,0"
         id="path8" /></g></g></svg>
