<?xml version="1.0" encoding="UTF-8" standalone="no"?>
<svg
   width="1200pt"
   height="1200pt"
   version="1.1"
   viewBox="0 0 1200 1200"
   id="svg1"
   xmlns="http://www.w3.org/2000/svg"
   xmlns:svg="http://www.w3.org/2000/svg">
  <defs
     id="defs1" />
  <path
     d="m 35.543,1037.2 v -88.207 l 11.246,-4.8203 c 6.1836,-2.6523 38.402,-13.574 71.598,-24.27 108.19,-34.867 206.88,-69.059 223.64,-77.488 9.0352,-4.543 17.57,-10.398 18.969,-13.012 3.4883,-6.5156 3.2109,-30.352 -0.39453,-33.957 -1.6172,-1.6133 -8.1523,-2.9375 -14.527,-2.9375 -15.293,0 -22.949,-3.168 -35.406,-14.648 -5.6836,-5.2383 -16.211,-12.48 -23.402,-16.098 -32.328,-16.258 -56.203,-41.355 -74.727,-78.547 -8.6719,-17.41 -11.59,-26.406 -13.105,-40.387 -3.0156,-27.809 -7.2227,-45.918 -14.691,-63.273 -3.7656,-8.75 -8.0078,-24.172 -9.4219,-34.27 -5.6484,-40.305 -11.199,-74.227 -14.824,-90.566 -8.4922,-38.32 -9.668,-53.488 -7.1289,-92.207 2.1172,-32.301 3.4414,-40.309 8.2383,-49.77 3.1445,-6.2031 6.5156,-15.625 7.4922,-20.934 2.582,-14.051 18.66,-41.062 36.707,-61.672 8.6484,-9.8789 18.043,-23.145 20.875,-29.48 7.1992,-16.105 47.105,-49.926 69.039,-58.508 5.668,-2.2188 14.828,-7.0898 20.355,-10.832 15.531,-10.504 75.395,-36.422 84.133,-36.422 6.6328,0 47.352,-9.8945 50.234,-12.207 2.8398,-2.2773 46.516,-11.773 69.762,-15.168 23.211,-3.3906 86.078,-4.2109 110.15,-1.4375 29.938,3.4492 49.441,14.184 66.512,36.613 3.5977,4.7266 10.414,10.434 15.148,12.68 14.598,6.9258 34.273,26.895 41.719,42.336 3.7891,7.8594 10.438,18.141 14.77,22.855 11.594,12.605 21.539,29.609 35.719,61.082 18.699,41.508 24.602,64.551 31.68,123.73 1.4492,12.117 4.1836,29.191 6.0781,37.941 1.8945,8.75 4.1289,21.102 4.9688,27.445 0.83984,6.3438 5.8125,24.289 11.051,39.879 10.816,32.199 17.949,60.191 22.133,86.887 1.582,10.098 5.9531,28.273 9.7148,40.391 9.4062,30.305 9.6094,32.188 9.9922,93.016 l 0.33984,53.852 -8.1367,29.375 c -7.3477,26.535 -8.1133,32.383 -7.918,60.492 0.27734,39.574 1.0547,42.523 12.465,47.469 10.871,4.707 269.62999,84.191 274.08999,84.191 2.4141,0 3.082,17.254 3.082,79.582 v 79.582 l -395.31999,-1.3438 -46.508,-16.188 c -46.852,-16.309 -77.164,-22.629 -80.738,-16.844 -1.9688,3.1836 3.0156,11.34 15.121,24.742 l 8.6641,9.5898 h -11.301 c -10.082,0 -11.301,-0.5898 -11.309,-5.5078 -0.0234,-7.8789 -8.4922,-20.707 -17.188,-25.992 -9.1836,-5.5859 -62.715,-9.6094 -70.734,-5.3164 -6.6523,3.5625 -11.352,21.184 -8.0234,30.086 l 2.5156,6.7305 h -33.68 l 11.172,-23.867 c 6.1445,-13.125 12.309,-26.262 13.695,-29.191 6.0352,-12.746 -1.5156,-19.34 -64.098,-55.98 -34.027,-19.922 -84.102,-71.379 -105.39,-108.32 -7.8633,-13.641 -10.133,-20.66 -12.652,-39.156 -4.6602,-34.227 -9.2461,-28.438 -9.2891,11.73 -0.043,43.832 8.1367,75.605 35.25,136.85 12.711,28.719 24.547,57.977 35.488,87.734 l 7.4258,20.195 h -401.31 z m 627.01,26.309 c 16.031,-7.8438 23.41,-15.23 27.797,-27.828 3.7461,-10.762 1.6445,-10.492 38.23,-4.8555 28.676,4.418 69.828,5.2695 75.566,1.5625 2.5469,-1.6484 -2.043,-2.3828 -15.004,-2.4102 -26.25,-0.1211 -69.859,-8.0938 -84.715,-15.625 -15.32,-7.7617 -35.566,-30.074 -44.098,-48.594 -6.0547,-13.145 -7.418,-14.41 -22.207,-20.699 -17.34,-7.3711 -16.656,-10.789 0.95703,-4.7891 13.105,4.4648 12.387,5.6289 14.582,-23.539 0.88672,-11.781 2.3398,-21.406 3.2305,-21.395 0.88672,0 6.2266,9.7617 11.863,21.668 9.9414,21.008 10.668,21.848 24.477,28.473 13.461,6.457 15.93,6.8047 45.617,6.4648 41.75,-0.48047 60.863,-5.1133 67.504,-16.367 4.4766,-7.5859 5.2891,-7.957 11.887,-5.4688 9.8086,3.7031 17.613,1.1641 32.438,-10.555 20.105,-15.891 22.887,-24.5 23.668,-73.266 0.60938,-38.055 1.1211,-41.914 8.582,-64.867 l 7.9297,-24.402 0.82812,-61.195 c 0.87109,-64.336 -0.22656,-74.828 -11.266,-107.7 -2.7109,-8.0781 -7.2539,-27.355 -10.09,-42.836 -5.3477,-29.176 -23.605,-87.047 -32.773,-103.89 -3.8633,-7.0977 -7.4648,-10.219 -13.617,-11.805 -14.785,-3.8086 -36.762,7.6562 -49.699,25.93 l -5.4961,7.7617 7.3047,-4.6602 c 4.0156,-2.5625 9.4766,-6.1406 12.133,-7.957 2.6562,-1.8125 10.848,-3.2969 18.199,-3.2969 10.359,0 14.648,1.1992 19.039,5.3203 8.082,7.5898 7.4336,17.988 -1.6445,26.465 -7.457,6.9648 -35.645,19.613 -43.711,19.613 -6.9297,0 -8.1367,2.8281 -3.4453,8.082 4.1602,4.6641 4.1055,4.75 -1.832,2.9375 -13.523,-4.1328 -36.715,-26.676 -36.715,-35.688 0,-7.6211 17.875,-36.711 32.176,-52.359 13.492,-14.766 24.93,-21.883 39.562,-24.629 5,-0.9375 9.6445,-2.6016 10.32,-3.6953 0.67578,-1.0938 -8.2656,-21.621 -19.867,-45.617 -58.523,-121.04 -57.902,-120.02 -80.293,-132.83 -15.73,-9 -23.305,-9.3984 -32.504,-1.6992 -11.594,9.7031 -31.641,21.137 -37.059,21.137 -2.8164,0 -7.9531,-1.2891 -11.41,-2.8672 -5.7422,-2.6172 -7.0078,-2.082 -14.52,6.1211 -8.0586,8.7969 -8.6133,8.9844 -26.324,8.9844 -18.762,0 -23.082,1.6719 -34.906,13.496 -3.1602,3.1602 -10.004,6.7695 -15.207,8.0156 -17.898,4.2969 -39.141,7.8594 -46.848,7.8594 -4.2461,0 -13.539,2.4141 -20.66,5.3633 -11.746,4.8672 -17.355,5.3789 -60.672,5.5352 -40.516,0.14453 -48.918,0.81641 -55.578,4.4336 -9.7578,5.3008 -12.469,16.719 -8.2148,34.59 2.9258,12.285 7.4023,80.645 8.2734,126.32 0.40234,21.105 -0.17969,24.434 -6.2891,36.023 -8.3242,15.789 -9.0938,36.133 -2.0469,54.012 2.5781,6.5352 6.0078,18.969 7.625,27.629 2.832,15.18 10.988,45.465 18.414,68.371 6.8164,21.023 3.207,49.887 -7.3281,58.629 -2.0977,1.7383 -3.8125,4.2422 -3.8125,5.5547 0,1.3164 5.1484,15.227 11.441,30.91 10.188,25.391 29.418,93.816 25.047,89.109 -2.3867,-2.5703 -10.676,-23.551 -16.062,-40.66 -2.4844,-7.8867 -5.6172,-14.312 -6.9648,-14.273 -1.3477,0 -4.8711,7.5898 -7.832,16.789 -6.5898,20.469 -7.5078,60.098 -2,86.289 9.9531,47.312 67.926,113.81 127.32,146.05 34.211,18.57 56.52,34.285 59.754,42.102 2.7852,6.7266 4.6484,7.7461 18.184,9.957 8.293,1.3555 27.305,2.1992 42.246,1.875 23.777,-0.5156 28.836,-1.4023 40.523,-7.1211 z m 92.449,-180.27 c 1.9141,-1.2148 11.277,-2.9062 20.805,-3.7656 20.566,-1.8555 42.664,-9.2227 57.273,-19.098 11.156,-7.543 16.293,-7.3828 9.3477,0.30078 -8.3867,9.2695 -28.562,17.891 -49.992,21.371 -24.668,4.0039 -42.777,4.5859 -37.43,1.2031 z m -28.574,-76.758 c -46.57,-5.7227 -47.031,-5.9844 -35.945,-20.52 6.8906,-9.0352 25.125,-19.066 57.254,-31.5 11.504,-4.4492 32.766,-13.633 47.246,-20.406 43.426,-20.305 52.23,-20.969 45.195,-3.3867 -2.1758,5.4375 -3.8125,16.562 -3.7617,25.539 0.14063,24.406 -9.0195,37.422 -34.219,48.637 -16.328,7.2656 -27.945,7.5156 -75.773,1.6406 z m 65.562,-6.6172 c 11.902,-3.3047 32.324,-16.617 31.105,-20.273 -1.7227,-5.168 -8.6016,-4.7773 -24.438,1.3984 -13.926,5.4297 -27.465,8.6328 -54.191,12.816 -5.3516,0.83984 -8.5586,2.4062 -7.3438,3.5898 4.5156,4.4023 41.852,6.0859 54.867,2.4688 z m -18.883,-28.156 c 26.801,-6.9805 38.379,-16.25 38.379,-30.727 0,-6.4883 -2.3164,-6.0938 -20.133,3.4375 -8.4492,4.5195 -25.602,11.848 -38.117,16.285 -22.758,8.0703 -25.301,10.922 -11.512,12.883 13.891,1.9766 17.367,1.7695 31.383,-1.8789 z m -129.58,16.512 c -0.94922,-5.0469 -1.8281,-15.941 -1.9453,-24.207 -0.17188,-11.789 0.83984,-16.203 4.6797,-20.473 6.8633,-7.6289 28.219,-23.625 52.656,-39.438 33.824,-21.887 37.527,-23.844 52.496,-27.742 7.8672,-2.0508 14.715,-4.1406 15.219,-4.6406 0.50391,-0.50391 -7.0977,-2.2031 -16.895,-3.7734 -15.102,-2.4258 -19.816,-2.2578 -31.027,1.0781 -17.789,5.3047 -28.43,3.1523 -34.621,-7.0039 -2.625,-4.3047 -4.7734,-10.891 -4.7773,-14.641 0,-6.0547 -0.55469,-6.5234 -4.9023,-4.1953 -2.6914,1.4414 -8.1914,8.3633 -12.215,15.383 -7.9766,13.91 -8.8281,14.188 -4.582,1.5039 4.0156,-11.996 13.199,-23.414 20.262,-25.184 6.5078,-1.6328 11.18,-12.922 11.207,-27.074 0,-5.6836 0.64844,-6.5859 3.0039,-4.2305 2.3516,2.3516 2.0938,7.3398 -1.2227,23.453 -5.1875,25.203 -5.2344,29.465 -0.36719,34.332 5.0391,5.0391 21.242,4.9531 34.695,-0.19141 8.4023,-3.207 11.816,-3.457 16.719,-1.2227 15.223,6.9336 50.246,-0.34766 62.039,-12.898 6.7344,-7.168 10.137,-33.285 5.125,-39.324 -1.7031,-2.0547 -1.9883,-3.7148 -0.63672,-3.7148 1.3477,0 3.8984,1.7461 5.668,3.8789 1.7695,2.1328 7.4141,5.5586 12.539,7.6094 11.375,4.5508 11.887,6.9258 1.4883,6.8906 -6.7305,0 -8.043,1.0078 -9.3672,7.3203 -2.3711,11.32 -6.8828,18.836 -16.672,27.773 -8.1445,7.4375 -8.4062,8.0508 -2.8516,6.6758 3.3672,-0.82813 17.355,-2.2031 31.086,-3.0469 20.969,-1.2852 25.965,-0.875 31.211,2.5625 5.8281,3.8203 6.2422,5.3867 6.2422,23.617 0,10.738 -0.65234,19.523 -1.4492,19.523 -0.79686,0 -4.25,-2.2031 -7.6719,-4.8945 -6.7266,-5.2891 -15.398,-6.1719 -26.617,-2.7031 -3.9023,1.207 -13.707,4.0977 -21.785,6.4219 -74.469,21.426 -140.46,56.301 -154.89,81.863 -3.0703,5.4336 -6.5977,9.8789 -7.8438,9.8789 -1.2461,0 -3.043,-4.1289 -3.9922,-9.1797 z m 209.57,-152.38 c -2.207,-1.4258 -2.5078,-2.3867 -0.75781,-2.4102 1.6016,0 3.5977,1.0664 4.4297,2.4102 1.8789,3.0391 1.0312,3.0391 -3.6719,0 z m -337.79,-63.375 c -9.3867,-2.5977 -9.1719,-10.875 0.47266,-18.164 16.105,-12.176 47.844,-25.973 68.781,-29.902 13.57,-2.5469 35.586,0.875 41.098,6.3867 2.5859,2.5859 4.6953,8.0664 4.6953,12.203 0,6.1211 -0.81641,7.25 -4.4141,6.1055 -2.4258,-0.76953 -9.8633,1.207 -16.523,4.3945 -18.844,9.0156 -67.238,21.441 -81.445,20.91 -3.6016,-0.13281 -9.2969,-1.0078 -12.664,-1.9375 z m 32.434,-7.7422 c 9.9922,-2.7734 11.164,-5.7422 5.4688,-13.871 -3.3477,-4.7812 -4.5,-5.0117 -11.789,-2.3789 -11.57,4.1797 -22.289,12.668 -20.223,16.012 2.1641,3.5 14.406,3.6133 26.543,0.23828 z m 64.051,-20.227 c 6.2969,-4.6016 4.0859,-12.688 -3.4688,-12.688 -6.2305,0 -9.0547,5.4688 -6.4023,12.383 1.6797,4.375 4.1992,4.457 9.875,0.3125 z m -134.27,9.9531 c 4.0391,-13.004 18.371,-38.031 26.648,-46.527 18.734,-19.23 21.723,-19.914 93.137,-21.359 59.477,-1.2031 64.359,-1.6445 74.578,-6.7383 6.0156,-2.9961 11.816,-4.5703 12.887,-3.4961 3.1641,3.1641 9.5273,37.23 8.7305,46.734 l -0.73438,8.75 -4.3086,-7.8828 c -6.1328,-11.219 -10.477,-12.793 -27.512,-9.9727 -8.0781,1.3359 -29.797,1.793 -48.262,1.0117 -60.43,-2.5508 -90.496,5.5742 -119.75,32.355 -15.32,14.023 -17.926,15.227 -15.41,7.1289 z m -112.78,227.64 c 5.0781,-4.3906 7.0547,-9.4766 9.75,-25.07 l 3.3828,-19.562 -7.582,-18.219 c -11.047,-26.539 -34.297,-58.359 -68.562,-93.836 -30.781,-31.871 -37.242,-36.145 -54.441,-36.02 -4.0469,0 -11.902,2.1172 -17.457,4.6367 -8.0898,3.6758 -11.43,7.3086 -16.801,18.285 -5.7617,11.777 -6.5664,16.02 -5.7461,30.242 2.1758,37.621 40.512,91.566 78.5,110.46 8.4375,4.1953 22.293,13.695 30.793,21.109 14.625,12.758 16.16,13.48 28.625,13.48 10.141,0 14.637,-1.2656 19.539,-5.5078 z m -69.871,-44.551 c -18.652,-6.8711 -28.934,-13.855 -43.82,-29.77 -31.926,-34.129 -40.746,-75.301 -21.039,-98.211 4.8984,-5.6953 7.7461,-6.7695 17.898,-6.7695 6.6406,0 13.895,1.5117 16.121,3.3594 6.25,5.1875 5.0547,13.754 -2.3867,17.145 -7.7969,3.5508 -10.867,1.5273 -4.6133,-3.043 6.9336,-5.0703 3.0547,-11.344 -7.0117,-11.344 -16.004,0 -26.516,21.695 -22.379,46.188 3.7461,22.184 35.848,62.215 58.25,72.645 17.703,8.2422 24.871,7.7227 37.625,-2.7305 7.8477,-6.4297 10.656,-10.496 10.656,-15.422 0,-8.0234 -4.0039,-12.562 -11.078,-12.562 -8.75,0 -16.809,-11.035 -18.242,-24.977 -1.6328,-15.898 -6.6406,-19.746 -17.566,-13.5 -9.4102,5.3789 -12.742,3.0469 -4.8203,-3.3789 13.051,-10.582 27.211,-6.7578 27.242,7.3516 0.0234,11.094 4.9297,24.562 9.918,27.234 2.6523,1.418 8.5234,1.8867 13.047,1.0312 7.832,-1.4688 8.2812,-1.1523 9.4102,6.5508 2.1289,14.516 -2.1758,23.383 -16.492,33.957 -14.25,10.527 -17.352,11.156 -30.719,6.2305 z m 492.14,-249.37 c 0,-1.7852 -2.7812,-5.8594 -6.1797,-9.0508 l -6.1797,-5.8047 -5.1758,5.1758 c -7.5703,7.5703 -4.3945,12.926 7.668,12.926 6.5625,0 9.8672,-1.0859 9.8672,-3.2461 z m 37.758,-24.496 c -0.86328,-2.2461 -2.5508,-4.082 -3.7539,-4.082 -2.5586,0 -2.9531,8.207 -0.51172,10.648 2.7539,2.7539 5.9531,-2.1719 4.2656,-6.5664 z"
     fill="#0a0a0a"
     id="path1"
     style="fill:#facc15;fill-opacity:1" />
</svg>
