<?xml version="1.0" encoding="UTF-8" standalone="no"?>
<svg
   width="1112.8597pt"
   height="680.73816pt"
   version="1.1"
   viewBox="0 0 1112.8597 680.73816"
   id="svg1"
   xmlns="http://www.w3.org/2000/svg"
   xmlns:svg="http://www.w3.org/2000/svg">
  <defs
     id="defs1" />
  <path
     d="m 878.18512,673.56579 c -4.3125,-11.129 -14.375,-40.371 -19.617,-57.008 -6.0273,-19.137 -16.027,-54.008 -15.992,-55.781 0.0781,-4.1016 2.9492,4.3555 17.688,52.129 9.0508,29.336 19.051,59.707 21.832,66.309 0.36719,0.875 0.26562,1.5234 -0.24609,1.5234 -0.48828,0 -2.1367,-3.2305 -3.668,-7.1758 z m -236.49,-9.0625 c -0.0703,-9.3945 6.3438,-39.848 14.902,-70.727 4.4023,-15.887 5.3164,-18.262 7.0312,-18.262 1.2891,0 0.49609,3.9531 -7.1055,35.512 -3.7617,15.625 -8.1328,34.207 -9.707,41.293 -3.0938,13.922 -5.0703,18.621 -5.1172,12.188 z m 98.648,-0.9375 c 4.4453,-11.359 6.8398,-32.969 5.9023,-53.305 l -0.47266,-10.289 -14.441,-4.8672 c -26.492,-8.9297 -33.801,-13.707 -50.352,-32.934 -8.6562,-10.055 -8.3711,-10.105 -12.082,2.0391 -2.7383,8.957 -3.4297,9.875 -4.6914,6.25 -0.53125,-1.5234 -1.2852,-2.7734 -1.6758,-2.7734 -0.3906,0 -2.4531,2.4492 -4.5898,5.4414 -7.8125,10.949 -22.117,22.691 -34.164,28.047 -13.211,5.8711 -50.809,11.738 -50.809,7.9297 0,-2.3047 2.2539,-2.9336 12.176,-3.3984 24.273,-1.1289 46.746,-10.375 62.301,-25.617 8.3516,-8.1836 18.176,-21.523 21.625,-29.355 0.83203,-1.8906 1.1797,-56.961 0.36328,-56.961 -0.27344,0 -3.0156,4.5703 -6.0859,10.152 -8.418,15.297 -14.219,23.586 -24.285,34.711 -19.855,21.941 -37.555,34.719 -51.32,37.055 -4.8008,0.81641 -7.4609,0.67187 -17.816,-0.98438 -22.316,-3.5547 -35.168,-6.1367 -43.277,-8.7031 -4.418,-1.3984 -14.23,-3.5703 -21.809,-4.8281 -16.68,-2.7695 -23.117,-4.6836 -28.836,-8.5781 -4.8594,-3.3086 -11.195,-9.2227 -10.562,-9.8555 0.22656,-0.22656 3.3008,1.5547 6.8281,3.9609 8.5625,5.832 13.59,7.8711 21.961,8.8906 10.52,1.2852 19.043,2.9961 36,7.2344 23.953,5.9844 36.125,8.3438 48.602,9.4141 l 11.52,0.98438 7.2969,-3.75 c 10.723,-5.5156 17.043,-10.633 31.488,-25.516 15.191,-15.652 20.617,-22.938 30.066,-40.391 7.5273,-13.898 15.035,-26.492 21.871,-36.691 10.664,-15.906 17.105,-37.449 17.117,-57.23 0,-3.9023 0.3125,-4.75 2.2031,-5.9883 1.2109,-0.79297 2.4258,-1.2188 2.6953,-0.94922 1.1367,1.1406 -1.3047,20.355 -3.2383,25.477 -1.9453,5.1523 -1.9609,5.4102 -0.52344,9.1641 2.1523,5.6328 25.715,37.16 39.895,53.383 7.6875,8.793 19.488,20.008 22.109,21.012 1.125,0.43359 18.035,-11.516 29.039,-20.523 7.6562,-6.2617 13.121,-9.1523 15.965,-8.4414 1.1055,0.27734 6.2773,2.9258 11.5,5.8867 5.2227,2.9609 15.145,8.1406 22.055,11.512 12.297,5.9961 12.73,6.1328 20.438,6.4648 5.4688,0.23828 9.6016,-0.12109 13.527,-1.1055 8.6016,-2.1953 29.926,-9.4258 30.578,-10.363 0.31641,-0.45703 0.23828,-1.7227 -0.17578,-2.8086 -0.41406,-1.0938 -2.543,-10.711 -4.7344,-21.379 -6.3438,-30.91 -7.5469,-34.691 -16.977,-53.312 -13.516,-26.699 -25.172,-45.793 -38.168,-62.527 -4.8516,-6.2461 -6.0547,-8.5781 -3.668,-7.1016 2.0625,1.2734 15.734,19.145 22.336,29.191 11.773,17.918 18.832,31.473 27.062,51.969 2.1641,5.3828 4.1875,9.9492 4.5,10.141 1.2852,0.80469 90.305,-6.1602 111.84998,-8.7383 13.051,-1.5625 26.879,-4.8438 30.02,-7.1211 1.1953,-0.86328 2.8125,-1.8164 3.5898,-2.1055 2.2734,-0.83984 16.535,-11.062 20.215,-14.484 3.9336,-3.6562 8.3672,-10.211 8.3672,-12.367 0,-2.7852 -9.8008,-4.9805 -38.254,-8.5742 -19.27,-2.4336 -21.391,-2.5586 -22.301,-1.3164 -0.8906,1.2188 -1.2852,1.1172 -3.4883,-0.89844 l -2.4844,-2.2773 11.738,0.49219 c 12.504,0.51563 26.109,2.043 43.047,4.8086 10.023,1.6367 10.551,1.832 13.387,4.918 l 2.9531,3.207 -0.5547,10.527 c -0.5234,9.9219 -0.4336,10.777 1.5273,14.875 2.207,4.6055 13.918,22.711 29.492,45.582 7.082,10.402 9.3438,14.383 9.1328,16.082 -0.2461,1.9492 -1.3594,0.74219 -8.1094,-8.7695 -12.328,-17.367 -24.523,-35.609 -30.098,-45.023 l -5.1211,-8.6484 v -8.0898 c 0,-4.4492 -0.2383,-8.0898 -0.5312,-8.0898 -0.293,0 -3.7031,2.9844 -7.582,6.6328 -11.594,10.906 -21.734,17.48 -32.621,21.148 -7.6484,2.5781 -40.55498,5.8945 -73.62498,7.4258 -28.13704,1.3047 -56.59804,3.293 -57.35204,4.0117 -0.51953,0.49219 0.53125,6.8594 2.8164,17.09 2.0039,8.9688 5.0117,22.957 6.6875,31.09 3.2031,15.57 8.125,34.875 18.953,74.352 7.5508,27.527 8.0273,29.566 6.9102,29.566 -2.5742,0 -11.094,-27.309 -21.57,-69.137 -3.5938,-14.348 -6.8555,-26.41 -7.25,-26.805 -0.39453,-0.39453 -6.7344,1.6289 -14.086,4.4922 -12.844,5.0039 -23.789,7.9648 -29.449,7.9648 -6.0078,0 -27.57,-9.4062 -44.781,-19.535 -4.5,-2.6484 -8.8398,-4.8125 -9.6445,-4.8125 -2.8125,0 -12.207,5.4766 -23.852,13.902 -6.457,4.6719 -14.621,9.9375 -18.141,11.703 -4.0742,2.043 -6.5703,3.8555 -6.8672,4.9844 -0.25391,0.97266 -3.3711,8.8711 -6.9258,17.551 -3.5547,8.6797 -8.4062,20.789 -10.777,26.918 -4.4258,11.43 -8.9609,26.895 -8.3867,28.617 0.17578,0.53906 4.1914,2.1797 8.918,3.6602 8.3086,2.6055 8.625,2.7969 9.3945,5.7305 0.44141,1.668 0.59375,10.469 0.34375,19.555 -0.39844,14.391 -0.79688,17.945 -3.0859,27.539 -2.375,9.957 -5.4219,18.117 -6.7617,18.117 -0.28125,0 -0.24219,-0.68359 0.0859,-1.5234 z m -11.207,-76.527 c 2.75,-12.125 7.3789,-26.172 14.266,-43.262 6.8477,-17 10.445,-27.227 10.445,-29.703 0,-1.5586 -1.7695,-4.0781 -5.9219,-8.4375 -9.1211,-9.5664 -13.16,-14.57 -31.906,-39.539 -9.5664,-12.742 -17.734,-23.176 -18.152,-23.184 -0.41797,-0.008 -1.6523,2.6367 -2.7461,5.8789 -1.0938,3.2422 -3.5312,8.332 -5.4219,11.305 -17.508,27.559 -16.539,24.82 -17.574,49.637 -0.46484,11.133 -0.48438,22.887 -0.0508,27.863 0.75391,8.5977 0.75781,8.6133 5.8242,16.09 6.9414,10.242 20.027,23.223 27.246,27.023 6.3984,3.3711 19.668,8.6211 21.941,8.6797 0.94531,0 1.707,-0.85156 2.0469,-2.3516 z m -236.98,73.094 c -0.043,-1.5273 0.92578,-5.9375 2.1445,-9.7969 1.21872,-3.8594 1.9805,-7.4023 1.6875,-7.8711 -0.293,-0.4688 -2.6172,-0.85156 -5.1719,-0.85156 -2.5547,0 -9.1562,-0.76953 -14.668,-1.7148 -32.723,-5.5938 -65.988,-23.957 -89.16,-49.219 -11.551,-12.594 -21.898,-28.082 -23.555,-35.258 -2.3359,-10.133 -0.63281,-23.508 5.7227,-44.949 2.168,-7.3164 3.7305,-13.859 3.4727,-14.531 -0.98438,-2.5664 -16.098,4.3164 -37.719,17.176 -12,7.1406 -12.59,7.3828 -19.133,7.9062 -3.7109,0.30078 -13.395,0.19141 -21.52,-0.23828 -16.508,-0.86328 -17.348,-0.70703 -25.008,4.8008 -2.3711,1.7031 -4.5586,2.8477 -4.8633,2.543 -0.30469,-0.30078 1.8594,-2.8867 4.8086,-5.7344 l 5.3633,-5.1836 45.781,0.47656 10.438,-5.8789 c 16.91,-9.5273 28.719,-15.316 36.68,-17.992 4.1055,-1.3789 7.9766,-3.0312 8.6016,-3.668 1.3281,-1.3555 3.8555,-17.445 3.8555,-24.535 0,-3.2695 -0.35156,-4.8906 -1.0625,-4.8906 -0.58203,0 -3.3164,2.2344 -6.0742,4.9648 l -5.0156,4.9609 -3.2734,-1.1406 c -8.3164,-2.9023 -9.8398,-5.8516 -16.32,-31.625 -5.5547,-22.09 -9.1211,-32.949 -20.621,-62.812 -11.648,-30.246 -15.801,-42.035 -19.883,-56.461 -1.8867,-6.6602 -3.6523,-12.336 -3.9219,-12.609 -0.88281,-0.88281 -2.7969,2.5742 -5.1992,9.375 -10.73,30.41 -17.168,42.293 -32.723,60.438 -9.2734,10.812 -11.711,12.43 -31.133,20.652 -13.523,5.7266 -15.766,8.3828 -31.367,37.211 -11.41,21.086 -14.492,24.855 -4.6992,5.7539 11.82,-23.059 17.766,-33.359 21.18,-36.684 3.4609,-3.375 9.5781,-6.7031 19.715,-10.727 10.805,-4.293 13,-5.7109 20.57,-13.277 7.5312,-7.5312 15.32,-18.227 21.34,-29.316 8.7031,-16.023 17.934,-41.676 18.914,-52.574 0.57031,-6.332 0.86328,-7.1406 3.4766,-9.5664 10.723,-9.957 12.625,-12.168 15.902,-18.496 1.9258,-3.7188 4,-8.4531 4.6133,-10.516 1.2578,-4.25 2.3398,-5.1992 11.84,-10.387 7.3594,-4.0195 10.59,-6.7461 17.113,-14.461 2.332,-2.7578 8.7891,-8.793 14.348,-13.414 5.5625,-4.6211 12.41,-10.512 15.223,-13.086 3.5391,-3.2422 7.9414,-6.0078 14.305,-8.9883 11.02,-5.1602 13.434,-6.7969 16.75,-11.379 2.0508,-2.832 2.5312,-4.3828 2.5312,-8.1953 0,-5.7031 -1.4883,-12.008 -3.1641,-13.398 -0.96094,-0.79688 -3.2344,-0.49219 -10.32,1.3867 -10.504,2.7852 -12.621,3.957 -11.23,6.2305 2.4375,3.9766 5.3906,5.0938 13.477,5.0938 4.2695,0 7.7617,0.26563 7.7617,0.58984 0,0.75781 -9.1562,4.1992 -11.121,4.1797 -3.2305,-0.0352 -8.4453,-3.8945 -10.184,-7.5508 -0.95703,-2.0078 -2.2266,-3.8555 -2.8242,-4.1016 -1.3672,-0.56641 -14.926,3.3242 -19.195,5.5078 -1.7578,0.89844 -5.7344,3.6641 -8.832,6.1445 -7.2695,5.8164 -17.016,11.809 -34.629,21.293 -13.914,7.4922 -18.469,9.2227 -11.438,4.3516 10.312,-7.1445 19.695,-21.305 26.895,-40.57 3.1055,-8.3164 5.5391,-11.285 19.055,-23.273 4.0078,-3.5547 8.5586,-8.4492 10.109,-10.875 3.9141,-6.1172 8.793,-10.805 20.43,-19.617 16.645,-12.609 21.234,-18.527004 21.234,-27.391004 0,-5.0781 -2.0273,-10.871 -3.8008,-10.871 -0.43359,0 -1.5,2.2383 -2.3672,4.9727 -1.5625,4.9102 -1.6641,5.0156 -8.1055,8.2031 -3.5859,1.7773 -6.8594,3.2578 -7.2734,3.2891 -0.41406,0.0352 -2.2812,-1.6055 -4.1484,-3.6406 l -3.3945,-3.6953 -7.5234,3.9141 c -10.219,5.3164 -18.762,11.023 -25.492,17.027004 -5.4141,4.832 -11.668,9.1289 -26.523,18.227 -9.6953,5.9375 -15.648,12.188 -22.984,24.121 -13.172,21.43 -31.504,47.035 -41.074,57.371 -5.9062,6.3789 -2.0742,0.64062 6.1289,-9.1719 4.3164,-5.1641 9.3125,-11.816 11.094,-14.785 1.7852,-2.9648 6.6328,-10.48 10.77,-16.695 4.1406,-6.2188 9.207,-14.371 11.258,-18.113 2.0508,-3.7461 5.1992,-8.668 6.9922,-10.934 3.75,-4.7422 13.156,-12.023 22.594,-17.488 4.6094,-2.668 10.223,-7.3828 19.133,-16.066 6.9336,-6.761704 15.938,-14.805004 20,-17.871004 12.371,-9.3398 20.535,-16.984 22.516,-21.074 1.3789,-2.8516 1.8359,-5.4492 1.8359,-10.512 0,-5.918 -0.24609,-6.9688 -2.0703,-8.7891 -2.4414,-2.4414 -11.984,-7.418 -14.227,-7.418 -0.85938,0 -4.6211,2.8711 -8.3672,6.3789 -5.4219,5.082 -6.7461,6.8047 -6.5078,8.4805 0.25781,1.832 1.0156,2.2422 5.9258,3.2148 5.2891,1.0469 5.7617,1.0039 7.8281,-0.67578 1.2109,-0.98438 3.957,-2.9648 6.1055,-4.3984 5.2812,-3.5273 5.8203,-1.5352 0.79297,2.9258 -9.3633,8.3086 -18.488,9.0312 -25.07,1.9883 -1.1602,-1.2422 -2.5664,-2.2578 -3.125,-2.2578 -2.9883,0 -13.48,8.5 -25.203,20.414 -10.77,10.945 -14.832,14.414 -23.285,19.891 -11.461,7.418 -18.043,13.152004 -21.086,18.367004 -1.125,1.9297 -5.3594,11.141 -9.4102,20.465 -13.238,30.504 -18.934,41.383 -28,53.48 -4.8008,6.4102 -25.246,27.188 -26.004,26.43 -0.24219,-0.24219 4.0742,-4.918 9.5977,-10.387 16.098,-15.945 24.43,-29.793 40.773,-67.785 4.6289,-10.762 9.4453,-21.457 10.699,-23.766 2.9648,-5.4609 10.227,-12.117004 20.816,-19.082004 10.941,-7.1953 18.301,-13.52 27.094,-23.281 6.6172,-7.3477 7.0664,-8.0938 7.0664,-11.73 0,-4.1992 1.3672,-5.2383 2.25,-1.7109 0.30078,1.1953 1.1055,2.1758 1.7852,2.1758 3.1055,0 22.367,-12.102 29.559,-18.57 l 4.4648,-4.0156 4.7422,1.6328 c 7.0117,2.4102 9.6719,3.9844 12.824,7.5742 l 2.8359,3.2305 -0.63281,19.281 h 10.434 c 9.9297,0 10.719,-0.13672 16.289,-2.7734 8.3164,-3.9375 12.07,-6.7148 25.078,-18.555 15.414,-14.027 21.223,-18.301 32.551,-23.941 17.172,-8.5508 23.477,-9.3047 57.832,-6.9141 45.02,3.1328 45.047,3.1406 75.301,18.133 22.309,11.059 34.551,18.102 48.621,27.98 5.2617,3.6914 10.02,6.8906 10.578,7.1094 0.558,0.2188 1.9922,-1.0469 3.1914,-2.8125 2.0898,-3.0742 2.1289,-3.3672 0.95312,-7.2383 -1.9688,-6.4883 -1.4609,-6.8125 2.0938,-1.3438 5.8789,9.0469 13.875,14.992 30.578,22.727 7.6445,3.5391 9.1562,4.8906 17.582,15.711 2.332,2.9922 7.7578,8.027304 12.566,11.660004 8.2812,6.2578 13.402,12 14.578,16.348 0.32422,1.1953 -0.51172,0.21875 -1.8516,-2.168 -1.7656,-3.1445 -4.957,-6.3359 -11.57,-11.566 -14.449,-11.434004 -18.645,-15.371004 -20.891,-19.602004 -1.9844,-3.7383 -2.7422,-4.2578 -14.031,-9.5898 -6.5664,-3.1016 -14.285,-7.2305 -17.156,-9.1836 -2.8711,-1.9492 -5.5664,-3.5469 -5.9844,-3.5469 -1.1758,0 -4.7734,4.1172 -4.4219,5.0586 0.17188,0.46094 2.4805,2.5977 5.1328,4.7461 8.9336,7.2461 15.75,16.809 28.707,40.266004 11.578,20.953 12.117,21.684 17.035,22.906 4.0625,1.0117 16.574,6.7812 17.32,7.9844 0.19922,0.32031 -3.4805,-0.92578 -8.1797,-2.7695 -10.062,-3.9492 -16.961,-5.8594 -23.816,-6.5938 l -4.9805,-0.53516 -2.5781,5.7461 c -1.9062,4.2461 -3.125,5.8828 -4.6719,6.2695 -2.8672,0.71875 -12.414,-1.1094 -16.402,-3.1445 -4.1562,-2.1211 -5.082,-2.1016 -5.082,0.10938 0,4.6836 6.3359,11.516 14.348,15.473 2.8711,1.418 10.5,4.5859 16.957,7.043 31.984,12.168 45.57,22.609 55.348,42.535 2.2656,4.6172 6.4531,12.293 9.3047,17.062 7.5195,12.574 8.1211,14.324 8.6836,25.242 0.26953,5.2617 1.293,12.664 2.2773,16.449 0.98437,3.7852 1.6094,7.0625 1.3906,7.2812 -0.45703,0.45703 -15.18,-11.871 -21.996,-18.418 l -4.5664,-4.3828 v -25.086 l 3.4766,-3.7734 c 1.9141,-2.0742 3.4805,-4.3555 3.4805,-5.0664 0,-4.918 -24.531,-36.25 -26.691,-34.09 -0.24609,0.24609 0.55078,4.6797 1.7734,9.8516 2.8125,11.918 3.7031,18.93 5.2852,41.582 1.793,25.727 1.1211,30.832 -7.875,59.57 -3.0703,9.8047 -6.3633,21.938 -7.3203,26.957 -0.95703,5.0234 -2.2734,10.965 -2.9258,13.203 -1.5781,5.4297 -8.9883,17.234 -10.82,17.242 -0.78906,0 -3.2383,1.5547 -5.4453,3.4453 l -4.0156,3.4414 -1.1016,8.3125 c -0.60547,4.5703 -1.4766,8.5469 -1.9375,8.832 -0.46094,0.28906 -1.4336,-0.12109 -2.1641,-0.80469 -1.1484,-1.1523 -1.1836,-2.2812 -0.25781,-8.582 0.76953,-5.2422 0.96094,-18.379 0.68359,-47.262 -0.48438,-50.664 -0.73047,-52.164 -13.555,-82.379 -6.9062,-16.273 -10.082,-20.605 -17.055,-23.254 -3.6055,-1.3711 -4.3398,0.0234 -1.8125,3.4492 2.375,3.2188 2.7891,5.2148 1.0898,5.2344 -0.59766,0.008 -7.7383,-3.3125 -15.871,-7.375 -8.1328,-4.0625 -15.762,-7.4922 -16.957,-7.6211 -2.1289,-0.23047 -2.1719,-0.12109 -2.0195,5.2656 0.15234,5.418 0.10938,5.5273 -2.8594,7.2773 -2.3047,1.3594 -3.2617,2.6992 -4.0625,5.6953 -0.57812,2.1523 -1.4961,4.0898 -2.043,4.3008 -0.54687,0.21094 -6.1094,-2.1797 -12.359,-5.3086 -6.7461,-3.3789 -11.582,-5.3359 -11.906,-4.8125 -0.71484,1.1523 3.2031,7.7891 6.6094,11.191 1.6445,1.6445 3.582,2.6875 5.0078,2.6953 3.75,0.0234 4.6992,1.082 4.0508,4.543 -0.32812,1.75 -0.20703,3.3008 0.28516,3.6055 1.5195,0.94141 20.234,-4.3242 32.156,-9.0469 l 11.555,-4.5742 2.1562,2.0273 c 2.4883,2.3398 7.3438,11.629 7.3438,14.051 0,0.90234 -0.57031,2.7461 -1.2656,4.0938 -1.3672,2.6484 -2.375,2.9336 -14.188,4.0508 -3.4766,0.32812 -6.4961,0.87891 -6.707,1.2188 -0.21094,0.34375 3.3281,2.918 7.8633,5.7266 8.5352,5.2812 17.324,12.449 15.344,12.516 -0.62109,0.0234 -5.1016,-2.3125 -9.9609,-5.1836 -16.449,-9.7266 -24.242,-11.312 -45.871,-9.3398 -7.4141,0.67578 -13.918,1.0781 -14.453,0.89062 -1.0508,-0.36719 -4.0664,-13.906 -3.3555,-15.059 0.23828,-0.38281 2.9609,-0.96875 6.0508,-1.3008 6.4336,-0.6875 8.1094,-1.9883 6.9062,-5.3672 -0.61719,-1.7305 -2.3906,-2.918 -7.6719,-5.1367 -3.7773,-1.5859 -7.2031,-2.6797 -7.6133,-2.4258 -0.41016,0.25391 -0.50391,1.4141 -0.21094,2.582 0.73828,2.9453 -0.17188,2.668 -4.582,-1.3945 -3.8047,-3.5078 -3.8281,-3.5156 -10.098,-3.2617 l -6.2852,0.25391 v 10.871 c 0,9.7578 0.25,11.551 2.4414,17.504 1.3438,3.6484 3.3906,7.5273 4.5547,8.6211 l 2.1133,1.9844 5.9023,-2.3164 c 3.2461,-1.2734 6.4453,-2.3164 7.1055,-2.3164 0.66016,0 -1.1406,2.4453 -4.0078,5.4336 -6.1445,6.4062 -7,7.8555 -8.1172,13.746 -1.0117,5.3438 -0.71094,6.0234 6.3711,14.25 5.3203,6.1836 10.418,13.562 9.793,14.184 -0.55469,0.55078 -22.242,-21.707 -22.242,-22.836 0,-0.55859 1.957,-4.2383 4.3477,-8.1758 2.3906,-3.9375 4.3477,-7.5352 4.3477,-7.9922 0,-0.89062 -3.6719,-2.5273 -5.6602,-2.5273 -0.66016,0 -1.7383,1.0781 -2.3945,2.3906 -0.65625,1.3164 -1.7227,2.2695 -2.375,2.125 -0.64844,-0.14844 -3.1875,-0.78906 -5.6406,-1.4297 -2.4531,-0.63672 -7.8633,-1.4453 -12.023,-1.793 -10.184,-0.84766 -10.094,-2.5391 0.19141,-3.582 3.3203,-0.33594 6.0898,-0.0586 8.7695,0.88672 5.2578,1.8516 6.3125,1.7656 9.0195,-0.74219 l 2.3164,-2.1445 -3.7852,-5.0273 c -2.082,-2.7656 -4.6562,-6.6094 -5.7227,-8.5391 l -1.9375,-3.5078 1.7578,-6.3477 c 2.4297,-8.7656 3.1562,-16.043 1.9023,-19.066 -0.55859,-1.3516 -2.2383,-3.1797 -3.7344,-4.0625 -2.6562,-1.5703 -2.7031,-1.5703 -2.0312,0.0469 2.7773,6.7031 2.8203,6.1758 -0.82031,9.9062 -1.875,1.918 -3.8398,3.4883 -4.3633,3.4883 -0.52734,0 -3.4609,-1.7617 -6.5156,-3.9141 -3.0547,-2.1523 -5.8711,-3.9141 -6.2578,-3.9141 -1.1445,0 -0.81641,4.1875 1.1797,14.953 l 1.8867,10.168 -5.0391,5.918 c -2.7695,3.2539 -6.3633,7.3945 -7.9844,9.1992 l -2.9453,3.2773 -12.586,-2.2969 -0.26172,-4.5195 c -0.17188,-2.9414 -0.64844,-4.5195 -1.3711,-4.5195 -0.60938,0 -3.8242,0.92578 -7.1445,2.0547 l -6.0352,2.0547 -4.5195,-2.0625 c -6.8633,-3.1328 -13.113,-4.4531 -30.078,-6.3594 -8.5234,-0.95703 -15.859,-1.9648 -16.305,-2.2422 -1.0859,-0.67188 -1.0234,-4.5312 0.16406,-10.141 1.1523,-5.4414 3.3516,-10.059 5.875,-12.34 2.832,-2.5586 8.75,-1.3789 20.879,4.1758 14.996,6.8633 18.617,7.7734 27.957,7.0352 6.6289,-0.52344 8.4766,-0.34766 13.387,1.2852 3.1328,1.043 5.9297,2.2734 6.2148,2.7344 0.28516,0.46094 -0.58984,2.2422 -1.9453,3.957 -5.9688,7.5391 -5.7422,7.0625 -4.6992,10.059 1.2305,3.5312 5.1055,7.6211 7.2188,7.6211 1.9453,0 8.7617,-6.6602 12.727,-12.434 3.1406,-4.5781 3.125,-4.043 0.55078,-18.004 -0.66016,-3.5859 -1.457,-8.1875 -1.7656,-10.227 -0.49609,-3.25 -1.1562,-4.1289 -5.4297,-7.1875 -2.6758,-1.918 -6.6992,-4.0312 -8.9414,-4.6953 -2.2422,-0.66406 -5.9453,-2.6367 -8.2305,-4.3828 -2.2852,-1.7461 -5.5664,-3.8906 -7.2891,-4.7695 -4.3633,-2.2227 -29.094,-9.6133 -32.176,-9.6133 -3.7539,0 -9.457,-6.8516 -14.734,-17.711 -3.9414,-8.1133 -4.7148,-9.1484 -7.6953,-10.336 -4.668,-1.8555 -12.93,-3.5938 -14.398,-3.0312 -1.7383,0.66797 -4.4062,13.621 -4.4258,21.512 -0.0156,5.5352 0.48047,7.7695 3.2734,14.781 3.6953,9.2812 5.4688,18.184 4.1016,20.621 -0.78125,1.3984 -0.96484,1.3047 -1.8008,-0.89062 -0.51172,-1.3477 -0.92969,-3.0078 -0.92969,-3.6914 0,-0.6836 -2.5664,-4.043 -5.7031,-7.4609 -5.543,-6.043 -10.309,-14.09 -12.543,-21.184 -2.0742,-6.5898 -2.8086,-5.5703 -2.1875,3.043 1.2773,17.688 -1.0938,23.039 -20.289,45.773 -10.148,12.02 -13.406,17.207 -17.527,27.93 -1.9766,5.1406 -4.7969,12.395 -6.2656,16.121 -2.4961,6.332 -2.6797,7.5742 -2.8242,19.133 -0.10156,8.3281 -0.61719,14.059 -1.582,17.578 -4.332,15.832 -4.0469,36.344 0.73828,53.266 0.51172,1.8086 0.27344,1.957 -3.125,1.957 h -3.6797 l 0.22266,14.133 c 0.125,7.7734 0.16797,14.418 0.0977,14.766 -0.1875,0.97266 -12.227,-3.6055 -15.926,-6.0547 -3.2305,-2.1367 -4.3711,-4.293 -7.6289,-14.371 -2.9297,-9.0703 1.7109,-2.9609 5.5703,7.32809 1.4492,3.86721 1.8359,4.1875 8.0625,6.72271 3.5977,1.46479 6.8398,2.47659 7.2109,2.25 0.36719,-0.22656 0.28516,-2.0781 -0.1875,-4.11721 -1.125,-4.86329 -0.46094,-13.793 1.4805,-19.91399 l 1.5586,-4.91021 -2.832,-4.6562 c -3.3008,-5.4297 -6.8672,-9.4375 -8.3945,-9.4375 -0.58984,0 -1.5273,1.3711 -2.0781,3.043 -0.55078,1.6758 -1.2695,3.043 -1.5898,3.043 -0.3203,0 -2.2695,-1.957 -4.3281,-4.3477 -2.0586,-2.3906 -4.0664,-4.3477 -4.4648,-4.3477 -0.39453,0 -0.99219,2.543 -1.3242,5.6523 -0.33203,3.1094 -0.95703,5.6523 -1.3867,5.6523 -0.42969,0 -1.6172,-1.6641 -2.6367,-3.6953 -3.3555,-6.6836 -7.8359,-9.7812 -9.1641,-6.3242 -0.76953,2.0078 1.1641,25.395 2.7383,33.094 4.8633,23.777 15.27,40.758 29.277,47.77 3.3867,1.6914 7.1016,3.0781 8.2578,3.0781 2.6055,0 6.2734,-1.8477 8.457,-4.2578 0.91016,-1.0078 1.9258,-1.8281 2.2578,-1.8281 0.33203,0 0.84766,4.207 1.1445,9.3477 0.60938,10.492 4.6445,33.84 7.9883,46.227 2.8711,10.629 5.6641,15.605 12.188,21.707 5.5078,5.1523 44.762,37.719 58.211,48.293 4.1992,3.3008 8.7031,7.6914 10.012,9.7578 2.625,4.1406 5.0625,14.281 7.4961,31.203 0.82422,5.7383 1.9688,10.949 2.5391,11.578 2.8633,3.1602 55.223,4.5703 70.758,1.9062 4.8477,-0.82813 5.75,-0.76953 7.1758,0.52734 0.89844,0.81641 1.6289,1.7461 1.6289,2.0742 0,0.85156 -25.051,2.1797 -40.438,2.1367 -7.5391,0 -18.07,-0.70703 -24.949,-1.6328 -6.5469,-0.875 -12.469,-1.3828 -13.16,-1.1172 -1.7422,0.67188 -3.1055,26.555 -1.4492,27.578 0.59766,0.35938 2.9219,0.91016 5.168,1.2109 6.9453,0.92578 7.2266,1.4531 5.3125,10.121 -0.89844,4.082 -2.2266,8.7773 -2.9492,10.434 l -1.3125,3.0117 -0.0703,-2.7812 z m -10.391,-24.391 c 2.6484,-6.7539 -2.3477,-58.488 -6.5352,-67.637 -2.4062,-5.2578 -6.3633,-8.8164 -31.406,-28.238 -35.434,-27.48 -41.836,-33.324 -46.383,-42.328 -3.6055,-7.1406 -4.9414,-12.242 -7.9141,-30.199 -1.418,-8.5625 -3.0156,-16 -3.5508,-16.523 -0.71094,-0.69531 -1.3945,-0.44531 -2.5312,0.94922 -1.293,1.582 -1.6406,4.1797 -2.0391,15.219 -0.55078,15.293 -1.9609,21.91 -9.8203,46.047 l -4.9141,15.094 -0.24219,27.828 4.2383,6.9453 c 22.527,36.93 60.055,64.262 100.9,73.496 9.2734,2.0977 9.1133,2.1055 10.195,-0.64844 z m 299.25,-374.81 c 0.34766,-11.34 -0.12891,-16.75 -1.8008,-20.52 -2.0391,-4.5938 -9.4805,-16.219 -10.379,-16.219 -0.375,0 -1.5391,0.60156 -2.5898,1.3359 -3.082,2.1562 -3.9922,6.9297 -3.293,17.211 l 0.625,9.1641 7.5312,7.8594 c 4.1406,4.3242 8.0195,7.8711 8.6172,7.8828 0.76172,0.0117 1.1484,-1.9961 1.293,-6.7148 z m -81.852,-116.09 c 1.9727,-1.6445 6.1094,-8.4453 5.6211,-9.2344 -0.75781,-1.2266 -14.707,-3.7227 -19.203,-3.4336 -4.2852,0.27344 -4.3516,0.32422 -4.6055,3.3398 -0.20703,2.4414 0.25781,3.5547 2.293,5.5039 4.3594,4.1758 12.984,6.2539 15.895,3.8281 z m -296.82,-63.484004 c 3.1641,-8.5469 3.1602,-8.4805 0.63672,-8.4805 -3.4609,0 -10.52,3.9688 -13.117,7.3711 -3.4609,4.5352 -2.5078,5.6758 4.7344,5.6758 h 6.0508 l 1.6914,-4.5664 z m -256.37,560.480004 c 0,-0.35938 0.80469,-2.7734 1.793,-5.3633 2.8867,-7.5898 5.7578,-20.965 8.7031,-40.508 2.9922,-19.848 2.9648,-18.258 1.1289,-68.934 -0.61719,-17.02 -0.30859,-18.488 5.7617,-27.594 1.9141,-2.8711 3.4805,-5.6445 3.4805,-6.1719 0,-0.66016 -3.8594,-0.82812 -12.824,-0.53906 -13.973,0.44531 -24.273,-0.69531 -41.523,-4.5859 -17.737996,-4.0039 -28.940996,-11.652 -34.519996,-23.574 -2.6875,-5.7422 -2.7227,-5.9766 -1.7266,-11.77 0.55859,-3.25 2.5391,-9.9336 4.4023,-14.852 4.2695,-11.262 5.6914,-17.863 4.5156,-20.953 -0.48047,-1.2617 -3.3086,-4.1602 -6.2891,-6.4453 -2.9805,-2.2852 -8.7344,-6.793 -12.793,-10.02 -7.0781,-5.6289 -7.4453,-5.8047 -9.0352,-4.3672 -2.5156,2.2773 -8,14.359 -11.156,24.582 -4.2656,13.809 -8.3164,18.52 -32.816,38.172 -12.23399964,9.8125 -13.30499964,10.488 -13.04299964,8.2344 0.22656,-1.9648 2.54300004,-4.2773 11.58999964,-11.57 20.629,-16.633 28.414,-25.887 31.242,-37.137 2.582,-10.277 11.035,-25.938 18.051,-33.43 2.0391,-2.1797 14.984,-7.7539 18.004,-7.7539 0.82031,0 3.9375,1.7812 6.9297,3.957 3.4102,2.4805 6,3.7773 6.9453,3.4805 1.5117,-0.48047 15.765996,-16.77 20.503996,-23.434 4.2227,-5.9414 9.0625,-10.688 21.812,-21.395 19.613,-16.473 22.066,-19.629 30.852,-39.672 2.9102,-6.6406 8.3711,-17.355 12.133,-23.812 8.4805,-14.555 9.3945,-16.402 18.656,-37.637 4.125,-9.4609 8.8477,-19.875 10.492,-23.141 3.4414,-6.832 12.734,-20.68 21.078,-31.402 6.8047,-8.7461 10.797,-16.863 17.27,-35.129 7.7891,-21.973 10.25,-26.707 20.113,-38.707 2.625,-3.1953 7.5391,-11.352004 11.523,-19.133004 3.8203,-7.4609 8.2344,-15.383 9.8125,-17.605 4.7891,-6.7461 15.023,-19.734 15.324,-19.441 0.15625,0.15234 -0.33203,1.4609 -1.082,2.9102 -0.74997,1.4493 -1.1641,3.1484 -0.92188,3.7773 0.55469,1.4453 7.9531,6.1719 9.0469,5.7812 1.3906,-0.49609 12.98,-13.602 14.281,-16.145 0.67578,-1.3242 1.5,-3.6562 1.8281,-5.1836 0.51172,-2.3789 0.16797,-3.2461 -2.3945,-6.043 l -2.9922,-3.2656 -2.3555,1.543 c -1.2969,0.84766 -3.9844,2.9805 -5.9805,4.7383 -4.082,3.5977 -2.8828,1.5898 2.3789,-3.9805 1.918,-2.0312 3.9883,-3.6953 4.5938,-3.6953 0.60938,0 3.2852,1.0703 5.9492,2.375 5.375,2.6367 5.2031,1.8594 2.5234,11.316 -1.4414,5.0898 -6.3086,11.566 -12.836,17.078 l -4.1992,3.5469 -5.5234,-2.9492 c -5.3008,-2.832 -5.6094,-2.8945 -7.6992,-1.5234 -3.7344,2.4453 -9.6641,11.762 -17.039,26.77 -5.6289,11.453004 -8.4023,15.988004 -13.418,21.945004 -7.7734,9.2344 -11.926,17.516 -17.938,35.797 -6.1797,18.785 -10.594,27.902 -18.32,37.828 -13.641,17.523 -20.68,29.719 -30.375,52.613 -5.0469,11.914 -13.688,29.02 -19.523,38.641 -6.043,9.9648 -9.3438,16.48 -13.461,26.562 -6.1719,15.113 -12.27,22.898 -26.121,33.355 -11.555,8.7227 -26.887,23.617 -34.613,33.625 -2.9531,3.8281 -9.331996,11.066 -14.171996,16.09 -7.9102,8.207 -8.7305,8.5508 -4.4023,1.8516 1.2188,-1.8867 1.1953,-2.1602 -0.25781,-3.2227 -2.8906,-2.1133 -10.551,-3.2031 -15.328,-2.1758 -5.8242,1.25 -11.25,4.1016 -11.25,5.9141 0,2.1758 7.7656,9.0547 13.504,11.957 5.9766,3.0234 14.535,10.688 16.066,14.383 0.99219,2.3945 0.69922,3.6953 -3.2695,14.574 -7.9688,21.84 -8.2891,30.102 -1.5039,38.996 8.5195,11.172 39.429996,20.281 68.960996,20.324 11.473,0 12.793,-0.33594 17.434,-4.6562 2.8711,-2.6719 2.9141,-2.6797 2.3281,-0.55078 -0.32812,1.1992 -2.9453,5.6172 -5.8164,9.8281 -7.2734,10.672 -7.6992,11.953 -7.6992,23.234 v 9.6367 l 3.2383,1.3516 c 1.7812,0.74219 7.9102,2.5625 13.617,4.0391 l 10.379,2.6875 6.6016,-1.3711 c 3.6328,-0.75781 11.766,-3.5469 18.074,-6.207 6.3086,-2.6602 12.797,-5.0859 14.418,-5.3906 2.3047,-0.43359 5.3789,0.38281 14.18,3.7695 6.1797,2.3789 12.945,4.6016 15.031,4.9453 2.8047,0.45703 5.6406,2.0664 10.871,6.1602 9.1055,7.1289 16.375,13.527 15.906,13.996 -0.20313,0.20312 -4.2812,-2.1953 -9.0625,-5.3281 -12.184,-7.9805 -21.895,-12.973 -31.508,-16.191 -11.777,-3.9414 -17.336,-3.4727 -32.609,2.7656 -11.07,4.5195 -11.484,4.6133 -20,4.6016 -7.6797,-0.008 -9.8164,-0.38281 -18.246,-3.2031 -5.25,-1.7539 -9.8711,-2.8672 -10.266,-2.4727 -0.3949,0.3945 -0.0703,8.2539 0.72266,17.469 1.5781,18.344 1.1406,27.07 -2.332,46.555 -2.2305,12.516 -9.1914,42.676 -10.348,44.836 -0.86719,1.6172 -3.4531,2.3945 -3.4492,1.0312 z m 450.24,-127.62 c -5.1484,-2.5664 -11.551,-5.1211 -14.227,-5.6758 -5.6328,-1.1641 -7.7422,-0.5625 -20.637,5.8594 -4.2344,2.1133 -7.9492,3.5898 -8.2578,3.2812 -0.96484,-0.97266 5.2578,-5.5312 12.477,-9.1562 9.1797,-4.6055 14.301,-5.2266 21.051,-2.5469 10.988,4.3633 20.258,9.957 20.258,12.223 0,1.2344 -0.69922,0.97266 -10.664,-3.9922 z m -30.332,-33.789 c -4.1328,-1.5703 -10.285,-4.5078 -13.676,-6.5195 -9.3164,-5.5352 -21.902,-15.18 -21.648,-16.59 0.33203,-1.8477 4.9727,-2.7969 8.1094,-1.6602 3.0234,1.0938 6.5703,0.15625 19.32,-5.0742 3.9609,-1.625 7.625,-2.6992 8.1406,-2.3789 0.51562,0.3125 6.3906,0.53906 13.059,0.49219 10.777,-0.12109 12.914,0.16797 19.254,2.1758 6.457,2.0469 6.9258,2.3398 4.957,3.1016 -1.1953,0.46875 -12.543,0.94922 -25.219,1.0781 -22.09,0.22656 -25.168,0.50391 -39.785,3.5625 -1.0742,0.21484 -1.957,0.75781 -1.957,1.1758 0,0.97266 15.539,11.316 21.305,14.191 7.8516,3.9102 13.535,5.3789 20.992,5.4141 6.7969,0 7.418,-0.13281 15.633,-4.2969 11.102,-5.625 19.965,-13.828 19.176,-17.754 -0.40625,-2.0312 -0.16406,-2.6055 1.2617,-2.9766 1.5469,-0.40625 1.6328,-0.70703 0.69922,-2.4531 -1.8555,-3.4688 -9.6914,-10.684 -16.82,-15.488 l -6.8867,-4.6406 -12.336,6.3516 -5.207,-1.3477 c -2.8633,-0.73047 -7.2344,-1.9805 -9.7148,-2.7539 l -4.5078,-1.4102 -5.5977,3.6484 c -5.2344,3.4102 -10.336,8.0547 -14.449,13.156 -2.543,3.1523 -2.2578,0.48047 0.4375,-4.1172 2.2891,-3.9102 15.422,-14.547 19.176,-15.535 1.0195,-0.27734 5.0547,0.51562 8.957,1.7539 9.0625,2.8633 11.137,2.8203 17.449,-0.35938 2.8438,-1.4336 5.5234,-2.6094 5.957,-2.6094 1.4531,0 17.914,13.531 21.707,17.84 3.3594,3.8242 3.6992,4.6055 3.2852,7.5859 -1.4141,10.102 -13.703,21.672 -28.48,26.816 -9.3125,3.2422 -13.266,3.1758 -22.59,-0.37109 z m -54.664,-37.617 c 0,-0.30078 2.7227,-6.1406 6.0508,-12.992 4.2227,-8.6914 7.2422,-13.703 9.9961,-16.574 2.168,-2.2656 4.2031,-3.8594 4.5195,-3.543 0.31641,0.3125 -1.2227,3.2773 -3.418,6.582 -2.1953,3.3047 -6.0195,10.059 -8.4922,15.012 -2.4727,4.953 -5.1016,9.6875 -5.8398,10.523 -1.3281,1.5039 -2.8125,2.0273 -2.8125,0.98438 z m 128.79,-17.293 c -4.5703,-9.8047 -7.1758,-16.246 -6.7422,-16.676 0.80078,-0.80469 5.9102,7.668 8.0391,13.324 3.2227,8.5664 2.2773,11.02 -1.2969,3.3555 z m 71.957,-15.328 c 3.168,-6.1758 3.1836,-6.2461 3.332,-18.043 0.10156,-8.0664 0.72656,-14.668 1.957,-20.691 2.9219,-14.281 3.6523,-14.508 3.1094,-0.96875 -0.90234,22.551 -3.9883,39.289 -8.0234,43.5 -3.6836,3.8438 -3.7812,2.8398 -0.37891,-3.793 z m 307.47998,-6.1914 c -4.5898,-4.8867 -6.832,-7.6094 -6.2617,-7.6094 0.2539,0 2.6953,2.543 5.4258,5.6523 5.5977,6.375 6.1055,7.5664 0.8359,1.957 z m -317.19998,-4.7109 c -1.1719,-1.1758 -0.62109,-15.551 0.66016,-17.301 1.1953,-1.6289 1.2734,-1.6016 2.1758,0.76953 1.4766,3.8633 1.1953,14.125 -0.43359,15.754 -1.5547,1.5547 -1.6133,1.5742 -2.4023,0.79297 z m -136.9,-6.1211 -4.3203,-4.9609 -12.879,2.9102 -12.879,2.9141 -3.2656,-3.5 c -3.1094,-3.332 -5.9609,-10.191 -6.0352,-14.516 -0.0234,-1.6172 -0.25781,-1.5352 -2.2578,0.81641 -1.2266,1.4336 -3.7656,5.7383 -5.6445,9.5664 l -3.4141,6.957 0.31641,-4.4375 c 0.64453,-9.0039 7.2969,-18.098 18.73,-25.598 l 6.6523,-4.3633 0.43359,-9.6562 c 0.38281,-8.5156 0.64844,-9.7969 2.2227,-10.844 1.7695,-1.1719 1.7852,-1.0938 1.4375,6.418 -0.24609,5.3164 0.043,8.7344 0.95703,11.359 1.4141,4.0664 1.4766,3.9805 -3.5703,4.8555 -3.2344,0.55859 -10.164,5.0156 -11.402,7.3359 -0.44922,0.83984 -0.92578,4.6602 -1.0547,8.4844 l -0.23828,6.9609 4.1797,3.8711 c 2.3008,2.1328 4.5,3.9922 4.8906,4.1406 0.39062,0.14453 2.3828,-1.5469 4.4258,-3.7617 4.5234,-4.9062 7.8867,-6.7422 12.352,-6.7422 3.1133,0 3.8828,0.52734 9.3906,6.5781 7.6953,8.4336 10.227,9.418 16.625,6.4648 2.5117,-1.1641 8.043,-4.7148 12.289,-7.8906 4.2461,-3.1797 7.918,-5.7812 8.1562,-5.7812 0.2382,0 3.1328,2.543 6.4258,5.6523 3.2969,3.1094 6.6094,5.6523 7.3672,5.6523 3.5273,0 9.9844,-10.402 11.203,-18.043 0.32422,-2.0352 0.91016,-3.6953 1.3008,-3.6953 0.88672,0 3.4922,7.4961 3.457,9.9375 -0.0234,1.6406 -0.10547,1.668 -0.91406,0.27734 -1.5,-2.5742 -3.0977,-1.707 -4.918,2.6641 -2.625,6.3125 -6.7422,10.598 -10.188,10.598 -1.7852,0 -3.4258,-0.68359 -4.4766,-1.8594 -2.4102,-2.7031 -6.6289,-4.2266 -11.719,-4.2266 -4.207,0 -4.8164,0.30078 -10.512,5.2188 l -6.0469,5.2188 h -12.758 l -4.3203,-4.9609 z m 424.5,-22.215 c -3.8594,-3.9453 -9.5078,-10.305 -12.547,-14.133 -3.0391,-3.8242 -8.7031,-10.281 -12.59,-14.348 -3.8828,-4.0664 -11.57,-12.48 -17.082,-18.695 -5.5117,-6.2188 -12.918,-14.469 -16.461,-18.336 -3.543,-3.867 -10.355,-12.652 -15.137,-19.523 -4.7812,-6.8711 -11.246,-15.254 -14.363,-18.625 -7.9219,-8.5703 -8.7852,-9.9297 -19.129,-30.004 -5.0625,-9.8281 -14.711,-26.672 -21.438,-37.434 -25.621,-40.984 -31.023,-52.977 -41.117,-91.312 -5.1523,-19.574004 -9.8438,-34.328004 -12.777,-40.188004 -2.1055,-4.207 -6.2617,-8.0586 -19.645,-18.207 -3.957,-3 -10.129,-7.957 -13.719,-11.012 -3.5859,-3.0547 -10.352,-8.1094 -15.035,-11.234 -4.6797,-3.1211 -8.332,-5.8555 -8.1172,-6.0742 0.94531,-0.94531 9.1211,3.6523 14.648,8.2383 10.262,8.5156 12.156,9.7734 14.719,9.7734 3.2422,0 3.25,-1.9297 0.0234,-7.0039 -4.668,-7.3477 -11.426,-11.992 -18.773,-12.898 -3.8281,-0.47266 -4.6758,-0.97656 -7.207,-4.2969 -3.8984,-5.1133 -3.6133,-6.2422005 0.61328,-2.4258 1.9141,1.7305 3.8828,3.1445 4.375,3.1445 3.1562,0 0.87109,-7.4961005 -3.0742,-10.0820005 -1.793,-1.1719 -3.4648,-1.3672 -8.2969,-0.96094 -3.3281,0.28125 -6.0508,0.23438 -6.0508,-0.0977 0,-1.1875 8.0781,-5.46479998 9.8281,-5.20699998 0.98828,0.14453 9.4062,8.36719998 18.969,18.52700048 l 17.191,18.262 0.0508,4.5234 c 0.0508,4.332 0.22266,4.6602 4.1797,7.8086 2.2734,1.8086 7.2852,6.4453 11.145,10.309 6.9219,6.9297 7.0508,7.1406 10.152,16.539 1.7266,5.2344 5.5156,18.18 8.4219,28.766004 9.6445,35.145 16.703,52.047 32.555,77.934 4.6133,7.5312 12.156,19.859 16.762,27.395 4.6055,7.5352 11.23,19.566 14.719,26.742 7.6797,15.789 11.41,21.598 18.98,29.566 3.1797,3.3477 9.0078,10.766 12.945,16.48 9.1094,13.219 11.938,16.766 28.926,36.242 7.668,8.7891 16.035,18.523 18.594,21.633 2.559,3.11 10.375,11.922 17.367,19.582 15.656,17.148 16.223,17.812 15.223,17.812 -0.4453,0 -3.9648,-3.2266 -7.8242,-7.1758 z m -371.68,-2.4023 -1.8672,-2.6211 2.3438,1.0664 c 2.0781,0.94531 2.5195,0.85156 3.9023,-0.85547 1.707,-2.1094 3.0352,-2.4414 3.9336,-0.98047 0.52344,0.84766 -4.4141,5.8906 -5.8555,5.9766 -0.32422,0 -1.4336,-1.1445 -2.4609,-2.5859 z m -10.836,-6.5312 c -0.59375,-5.2969 -2.8203,-14.945 -5.1602,-22.371 -1.4961,-4.75 -0.73047,-5.4492 1.4336,-1.3047 1.7422,3.3359 11.098,24.375 11.098,24.953 0,0.22266 -0.46875,-0.0859 -1.043,-0.64453 -1.3867,-1.3867 -3.3047,-1.3281 -3.3047,0.0977 0,0.62891 -0.54688,1.8867 -1.2188,2.8047 -1.1094,1.5156 -1.2695,1.1953 -1.8008,-3.5312 z m 18.023,-17.746 c -1.9375,-1.4023 -4.4922,-3.8477 -5.6797,-5.4336 -2.9414,-3.9297 -5.2031,-8.5391 -4.1875,-8.5391 0.85156,0 12.973,12.988 14.25,15.266 1.1016,1.9688 -0.55078,1.4844 -4.3828,-1.293 z m -128.89,-0.44922 c 1.1719,-1.1562 31.758,-17.004 32.816,-17.004 1.1133,0 -3.2305,3.9492 -7.6289,6.9414 -6.9375,4.7188 -13.234,7.7188 -17.539,8.3594 -2.0703,0.30469 -4.6328,1.1016 -5.6953,1.7617 -2.5117,1.5664 -3.5703,1.5391 -1.957,-0.0859 z m 315.62,-9.7461 c -5.4844,-3.668 -8.4688,-7.4062 -9.9609,-12.477 -0.35156,-1.1953 0.89844,0.17969 2.7812,3.0547 1.8828,2.875 4.957,6.4805 6.8359,8.0156 3.668,2.9922 3.8555,3.7539 0.34766,1.4062 z m -323.11,-22.141 c -0.94531,-1.5312 1.0312,-2.2266 7.9961,-2.8164 5.793,-0.49219 9.3906,-1.5 22.707,-6.3711 2.5195,-0.92188 4.9297,-1.1641 7.6094,-0.76172 6.957,1.043 4.4453,3.0898 -3.7891,3.0898 -4.1836,0 -5.6953,0.47266 -9.6758,3.0391 -5.5742,3.5898 -8.6797,4.3008 -16.191,3.6953 -3.0703,-0.24609 -5.793,-0.0977 -6.0547,0.32422 -0.65625,1.0586 -1.8906,0.96484 -2.6094,-0.19531 z m 55.5,0.39062 c -1.8047,-0.73047 -1.2656,-2.0156 2.7031,-6.4297 2.6641,-2.9648 4.3672,-6.0078 5.7305,-10.254 2.1992,-6.8438 2.3398,-6.3008 -4.082,-16.051 -2.1445,-3.2539 -3.707,-6.1055 -3.4766,-6.3359 0.67969,-0.67969 8.1133,6.9336 10.566,10.82 3.625,5.7461 2.9102,8.7109 -4.4141,18.32 -1.5156,1.9883 -3.0156,5.1641 -3.3359,7.0625 -0.55469,3.293 -1.2695,3.8477 -3.6914,2.8711 z m 87.594,-4.6758 c -5.5039,-1.3086 -18.238,-6.1992 -18.238,-7.0078 0,-1.2852 2.1875,-0.94141 14.215,2.2383 6.293,1.6641 13.004,3.2773 14.918,3.582 2.8672,0.46094 3.1719,0.67969 1.7383,1.2617 -2.2266,0.90234 -8.6797,0.86328 -12.633,-0.0859 z m 15.676,-1.1523 c 0,-0.67578 7.0156,-5.1328 7.4297,-4.7188 0.875,0.875 -0.61719,3.0859 -2.7344,4.0508 -2.0898,0.95312 -4.6953,1.3242 -4.6953,0.67188 z m -186.97,-3.043 c 0,-0.52344 0.76172,-2.625 1.6914,-4.6719 0.92969,-2.0469 1.9062,-4.7617 2.1719,-6.0352 0.39062,-1.8711 2.3008,-3.3281 10,-7.6172 5.2344,-2.918 11.246,-6.043 13.352,-6.9492 9.0391,-3.875 26.145,-3.0312 36.27,1.7852 3.1094,1.4805 5.1562,2.875 4.5508,3.1016 -0.60547,0.22266 -5.0781,-0.64062 -9.9414,-1.9219 -7.1445,-1.8828 -10.27,-2.2695 -16.293,-2.0117 -6.5469,0.28125 -8.4492,0.77344 -15.711,4.0625 -8.3672,3.7891 -14.152,7.9531 -11.051,7.9531 0.83594,0 5.0938,-1.793 9.457,-3.9883 8.4258,-4.2305 18.316,-6.8555 22.258,-5.8984 3.125,0.75781 20.781,9.5742 21.5,10.738 0.80469,1.3047 -0.24609,1.4844 -15.668,2.6758 -9.5859,0.74219 -16.598,0.82422 -22.441,0.26953 -13.246,-1.2578 -17.867,-0.52344 -22.902,3.6289 -6.8242,5.6289 -7.2422,5.9062 -7.2422,4.8789 z m 55.195,-11.742 c 3.457,-2.5273 -1.6406,-6.5898 -6.125,-4.8828 -2.7656,1.0508 -2.5234,3.4102 0.50391,4.9414 2.7656,1.3984 3.6406,1.3906 5.6211,-0.0586 z m 276.68,4.0039 c -2.8281,-5.5859 -5.0859,-13.418 -4.1406,-14.363 0.4375,-0.4375 1.7227,1.957 3.0156,5.6055 2.4883,7.0352 4.1094,12.891 3.5664,12.891 -0.19141,0 -1.293,-1.8594 -2.4414,-4.1289 z m -126.68,-0.76953 c -6.1055,-5.2109 -7.6562,-5.7266 -14.16,-4.6992 -9.8594,1.5586 -26.344,2.1367 -27.074,0.94922 -0.36328,-0.58984 -0.22656,-1.5039 0.30859,-2.0352 1.3398,-1.3398 1.2109,-3.7344 -0.28906,-5.2305 -2.7422,-2.7422 -8.8398,1.1406 -8.1484,5.1914 0.23438,1.375 -0.25781,1.5586 -3.6367,1.3359 -5.3555,-0.35156 -6.2734,-1.5508 -3.1211,-4.0859 5.7266,-4.6055 17.301,-9.1367 23.34,-9.1367 5.9023,0 20.879,3.4922 25.305,5.9023 2.6875,1.4648 5.6836,4.2227 8.2031,7.5508 2.1797,2.8867 4.3086,5.6992 4.7305,6.2539 0.44141,0.58203 0.43359,1.2148 -0.0156,1.4922 -0.42969,0.26562 -2.875,-1.3047 -5.4336,-3.4883 z m 25.262,3.6914 c 0,-0.1875 -1.9688,-9.0469 -4.3711,-19.688 -2.4062,-10.641 -4.2188,-19.504 -4.0312,-19.691 0.58203,-0.58594 3.9023,7.8242 5.75,14.574 1.418,5.1797 4.3633,21.621 4.3867,24.488 0.004,0.35937 -0.38672,0.65234 -0.86328,0.65234 -0.48047,0 -0.87109,-0.15234 -0.87109,-0.33594 z m -263.06,-7.4883 c 1.8203,-8.6953 10.184,-25.723 15.594,-31.742 2.6953,-3 1.8516,-0.90625 -6.1211,15.219 -5.0859,10.285 -9.4414,18.895 -9.6758,19.133 -0.23438,0.23828 -0.14062,-0.93359 0.20703,-2.6094 z m 240.45,-3.793 c 0,-3.1875 -11.344,-10.203 -22.801,-14.102 -7.3281,-2.4922 -8.7266,-2.5742 -11.609,-0.6875 -1.2617,0.82422 -4.7969,1.6094 -8.4297,1.8711 -5.3633,0.38281 -6.6016,0.79297 -8.6758,2.8672 -3.2266,3.2266 -16.316,8.0977 -16.316,6.0703 0,-1.1211 6.2344,-4.7344 12.191,-7.0625 2.6211,-1.0234 6.8594,-2.832 9.418,-4.0195 10.707,-4.957 21.457,-4.6445 32.742,0.95312 11.484,5.6953 19.902,14.184 15.004,15.129 -0.90625,0.17578 -1.5234,-0.23828 -1.5234,-1.0156 z m -206.52,-3.1367 c -0.28516,-0.46094 1.7461,-1.9922 4.5156,-3.3945 2.7695,-1.4062 9.9727,-5.8711 16.008,-9.9258 9.418,-6.3242 18.691,-11.059 21.668,-11.059 0.46094,0 0.83594,0.54297 0.83594,1.207 0,0.66403 -3.2266,2.8711 -7.1758,4.9062 -3.9453,2.0352 -11.398,6.6016 -16.559,10.148 -11.098,7.625 -17.844,10.465 -19.297,8.1172 z m -156.55,-68.73 c 0.86719,-0.95703 1.7695,-1.7383 2.0078,-1.7383 0.2383,0 -0.27344,0.78125 -1.1406,1.7383 -0.86719,0.95703 -1.7695,1.7383 -2.0078,1.7383 -0.23828,0 0.27344,-0.78125 1.1406,-1.7383 z m 519.51,-52.871 c -11.426,-10.145 -13.301,-13.211 -24.547,-40.18 -8.1055,-19.438 -12.984,-29.582004 -15.871,-32.992004 -4.3398,-5.125 -44.789,-30.953 -57.207,-36.523 -7.2148,-3.2383 -19.059,-7.0078 -22.012,-7.0078 -2.125,0 -2.2109,0.17578 -1.6836,3.4805 0.43359,2.7188 0.28125,3.4766 -0.70703,3.4766 -0.69531,0 -1.5039,-0.39062 -1.8008,-0.87109 -0.2969,-0.48047 -3.4688,-0.87109 -7.0508,-0.87109 -4.1367,0 -7.4492,-0.48438 -9.0781,-1.3281 -2.3672,-1.2227 -2.5664,-1.6953 -2.5664,-6.0859 0,-2.6172 -0.24609,-4.7617 -0.54687,-4.7617 -0.30078,0 -2.1367,1.4375 -4.082,3.1914 -1.9453,1.7578 -3.6797,2.7617 -3.8555,2.2344 -1.1055,-3.3125 9.7891,-14.012 12.688,-12.461 0.80078,0.42969 4.4805,2.5664 8.1797,4.7539 3.6953,2.1875 7.2617,3.7656 7.9219,3.5117 1.6875,-0.64844 15.539,4.9336 28.391,11.445 18.434,9.3359 50.27,30.355 55.332,36.535 1.6328,1.9922 3.8789,5.918 4.9922,8.7266 1.1133,2.8086 3.6992,9.410204 5.7422,14.672004 3.8203,9.8359 11.922,28.617 15,34.785 0.95703,1.9141 5.8984,7.4883 10.98,12.391 9.9297,9.5781 11.121,12.164 1.7773,3.8711 z m -127.18,-116.300004 c 0.65625,-1.7148 -1.5703,-4.1523 -6.3594,-6.9609 -4.3086,-2.5234 -5.5117,-2.2383 -5.5117,1.3164 0,3.3828 4.3086,6.9844 8.3555,6.9844 1.9023,0 3.1914,-0.49219 3.5156,-1.3359 z m 65.766,110.430004 c -5.0469,-2.5156 -7.3633,-4.6367 -4.8398,-4.4336 1.2891,0.10938 1.5391,-0.53906 1.4727,-3.7891 l -0.0781,-3.9141 1.3984,3.1328 c 0.76953,1.7227 2.6641,4.5742 4.207,6.3359 2.3945,2.7305 3.5195,4.8789 2.5469,4.8789 -0.14453,0 -2.2656,-0.99609 -4.7109,-2.2148 z m -64.402,-128.960004 c -1.0625,-2.7422 -1.9336,-5.6875 -1.9336,-6.543 0,-0.85547 2.3164,-3.875 5.1484,-6.707 6.1484,-6.1484005 7.875,-6.4102005 14.27,-2.1641 8.5469,5.6719 12.219,5.9219 17.598,1.1953 3.3984,-2.9805 4.1602,-2.3047 3.6953,3.2734 -0.27344,3.2578 -0.33203,3.3047 -6.3633,5.1602 -3.3477,1.0312 -7.7344,2.7227 -9.75,3.7617 -4.3672,2.2539 -7.4531,2.332 -11.559,0.29687 l -3.043,-1.5117 0.23828,-5.8398 c 0.14062,-3.5039 -0.11328,-5.8398 -0.64062,-5.8398 -0.48047,0 -2.2422,1.4688 -3.9102,3.2617 -3.293,3.543 -3.6758,5.7109 -2.1562,12.289 1.2461,5.3984 0.65234,5.1641 -1.5977,-0.63281 z m 22.234,-6.6875 c 0.30859,-2.1523 -2.6367,-5.0703 -6.918,-6.8594 -2.7812,-1.1641 -3.293,-1.168 -4.2266,-0.0469 -1.3555,1.6328 0.27734,5.9648 2.9648,7.8672 2.6836,1.9023 7.8555,1.2891 8.1797,-0.96484 z"
     id="path1"
     style="fill:#facc15;fill-opacity:1" />
</svg>
